<svg xmlns="http://www.w3.org/2000/svg" viewBox="0 0 1178.4 228"><defs><style>.cls-1{fill:#005295;}.cls-2{fill:#98abd0;}</style></defs><title>logo</title><g id="Layer_2" data-name="Layer 2"><g id="Layer_1-2" data-name="Layer 1"><path class="cls-1" d="M1119.76,168.47l14.88,36a29.41,29.41,0,0,1,2.68,11c0,5.36-2.38,8.63-7.44,8.63v1.19c5.66,0,18.45-1.19,23.22-1.19s19.64,1.19,25.3,1.19v-1.19c-4.76,0-15.78-5.06-20.84-16.67L1069.16,0h-.6l-89.3,207.46c-5.36,11.91-14.29,16.67-21.43,16.67v1.19c6,0,15.48-1.19,20.54-1.19,4.76,0,16.07,1.19,22,1.19v-1.19c-4.17,0-8.33-4.46-8.33-11.61a24.73,24.73,0,0,1,1.79-8.33l15.18-36,4.76-10.72L1065,35.72l50.3,121.74ZM878.07,14.29V207.46c0,11.61-6.55,16.67-11.61,16.67v1.19c5.66,0,17.26-1.19,22-1.19s16.07,1.19,22,1.19v-1.19c-5.06,0-11.61-5.06-11.61-16.67V14.29c23.22,0,51.49.3,65.19,1.19,9.52.6,13.69,7.14,16.07,13.1l1.19-.3c-3.87-21.13-8-23.81-14.58-23.81-11,0-45.54.89-78.28.89-29.17,0-68.46-.89-79.47-.89-6.55,0-10.72,2.68-14.58,23.81l1.19.3c2.68-6,6.55-12.5,16.07-13.1,14-.89,42.86-1.19,66.38-1.19M617.92,26.49c-3.87-4.17-5.66-6.55-5.66-11.91,0-3.87,1.49-8,3-8.63V4.76c-6,0-16.07.89-20.84.89-5.06,0-18.16-.89-24.11-.89V6c5.06,0,17.86,4.17,17.86,18.75V207.76c0,11.61-8.63,16.67-13.39,16.67v1.19c5.66,0,14.88-1.19,19.64-1.19s14,1.19,19.64,1.19v-1.19c-5.06,0-13.39-5.06-13.39-16.67V39.59L767.34,228h1.19V22.62C768.53,11,775.08,6,779.84,6V4.76c-5.66,0-12.5.89-17.56.89-4.76,0-11.91-.89-17.56-.89V6C749.48,6,756,11,756,22.62V182.16ZM517.61,22.32V207.46c0,11.61-6.55,16.67-11.31,16.67v1.19c5.66,0,16.37-1.19,21.13-1.19,5.06,0,15.48,1.19,21.43,1.19v-1.19c-4.76,0-11.31-5.06-11.31-16.67V22.32c0-11.61,6.55-16.67,11.31-16.67V4.46c-5.66,0-16.37.89-21.43.89-4.76,0-15.48-.89-21.13-.89V5.66c4.76,0,11.31,5.36,11.31,16.67M373,114.89l-70.25,92.87c-9.82,11.61-25.3,16.67-30.06,16.67v1.19c5.66,0,17-1.19,21.73-1.19s22.32,1.19,28.57,1.19v-1.19c-5.06,0-15.18-5.06-5.36-16.67l63.1-83.34,63.7,83.34c6.55,8.63.89,16.67-6,16.67v1.19c5.66,0,23.51-1.19,28.57-1.19,4.76,0,18.75,1.19,24.7,1.19v-1.19c-4.76,0-15.48-5.06-24.11-16.67L392,109.24l65.48-86.62C467,11,482.79,6,487.55,6V4.76c-6,0-17,.89-21.73.89-5.06,0-22.62-.89-28.57-.89V6C442,6,452.43,11,442.61,22.62l-58,77.09L325.33,22.62c-4.17-6-2.68-16.67,6.25-16.67V4.76c-5.66,0-23.81.89-28.57.89-5.06,0-18.75-.89-25-.89V6c5.06,0,15.48,5.06,24.11,16.67Zm-200.62-9.23V14.58c23.22,0,35.42.3,49.41,1.19,9.52.6,11.91,2.68,14.58,8.63l1.19-.3C234,5.36,232.46,4.76,226.81,4.76c-11.31,0-36,.89-45.24.89-8.93,0-29.17-.89-40.48-.89V6c4.76,0,11.61,5.06,11.61,16.67V207.76c0,11.61-6.85,16.67-11.61,16.67v1.19c14.29,0,40.48-1.19,52.09-1.19,11.91,0,37.8,1.19,52.09,1.19,14.88,0,17.56-7.44,22-25.9l-1.19-.6c-3.57,6.55-9.23,14.88-28.57,15.48-17.86.89-39.59,1.19-62.8,1.19-1.49-7.44-2.08-19.94-2.08-58.93V115.19c6.25,0,36.61.3,48.81.6,11.61.6,16.67,6.85,16.67,11.61h1.19c0-5.66-.6-11.91-.6-16.67,0-5.06.6-11.31.6-17h-1.19c0,4.76-5.06,11-16.67,11.61-12.5,0-42.86.3-49.11.3M31.25,156.56V22.32c0-11.61,6.55-16.67,11.61-16.67V4.46c-5.66,0-16.67.89-21.43.89S6,4.46,0,4.46V5.66c5.06,0,11.61,5.06,11.61,16.67V207.46c0,11.61-6.55,16.67-11.61,16.67v1.19c14.29,0,40.48-1.19,52.09-1.19,11.91,0,37.8,1.19,52.09,1.19,14.88,0,17.56-7.44,22-25.9l-1.19-.6c-3.57,6.55-9.23,15.48-28.57,15.48-18.16,0-44.05-.3-62.8-.6-1.49-7.14-2.38-18.16-2.38-57.15"/><path class="cls-2" d="M1065.89,161.33a82.37,82.37,0,0,0,31.55-6.55,79.28,79.28,0,0,0-63.1,0,82.37,82.37,0,0,0,31.55,6.55"/></g></g></svg>